<svg xmlns="http://www.w3.org/2000/svg" viewBox="0 0 1700 822" width="1700" height="822" font-family="Georgia,serif">
<defs><filter id="toile"><feTurbulence type="fractalNoise" baseFrequency="0.9" numOctaves="3"/><feColorMatrix type="saturate" values="0"/><feComponentTransfer><feFuncA type="linear" slope="0.05"/></feComponentTransfer><feComposite operator="in" in2="SourceGraphic"/></filter></defs>
<rect width="1700" height="822" fill="#f6f1e4"/>
<rect width="1700" height="822" fill="#000" filter="url(#toile)" opacity="0.5"/>
<line x1="230" y1="30" x2="230" y2="792" stroke="#b9ad92" stroke-width="2" stroke-dasharray="9 7"/>
<line x1="1470" y1="30" x2="1470" y2="792" stroke="#b9ad92" stroke-width="2" stroke-dasharray="9 7"/>
<text x="40" y="52" font-size="17" letter-spacing="2" fill="#8a7f66">LES MOYENS</text>
<text x="1502" y="52" font-size="17" letter-spacing="2" fill="#8a7f66">LES OFFICES</text>
<text x="850" y="46" font-size="26" text-anchor="middle" fill="#3c342a" letter-spacing="1">SIÈGE SUR LE TRÔNE</text>
<path d="M760,236 C760,275 760,275 760,318" fill="none" stroke="#6b5f4a" stroke-width="2.2"/>
<path d="M1240,236 C1240,275 1230,275 1230,318" fill="none" stroke="#6b5f4a" stroke-width="2.2"/>
<path d="M760,366 C760,405 760,405 760,448" fill="none" stroke="#6b5f4a" stroke-width="2.2"/>
<path d="M760,496 C760,530 760,530 760,568" fill="none" stroke="#6b5f4a" stroke-width="2.2"/>
<path d="M760,496 C760,553 760,553 760,614" fill="none" stroke="#6b5f4a" stroke-width="2.2"/>
<path d="M760,496 C760,576 760,576 760,660" fill="none" stroke="#6b5f4a" stroke-width="2.2"/>
<path d="M779,64 L921,64 L935,78 L935,102 L921,116 L779,116 L765,102 L765,78 Z" fill="#efe4cb" stroke="#4a4033" stroke-width="2"/>
<text x="850" y="70" font-size="11" text-anchor="middle" fill="#2f2a22" opacity="0.75"></text>
<text x="850" y="93" font-size="13" text-anchor="middle" fill="#2f2a22">Siège sur le Trône</text>
<path d="M665,181 h190 v58 h-190 Z" fill="#e6ddc6" stroke="#4a4033" stroke-width="2"/>
<text x="760" y="190" font-size="11" text-anchor="middle" fill="#2f2a22" opacity="0.75">24000</text>
<text x="760" y="213" font-size="13" text-anchor="middle" fill="#2f2a22">Décision exécutée</text>
<path d="M1145,181 h190 v58 h-190 Z" fill="#e6ddc6" stroke="#4a4033" stroke-width="2"/>
<text x="1240" y="190" font-size="11" text-anchor="middle" fill="#2f2a22" opacity="0.75">24001</text>
<text x="1240" y="213" font-size="13" text-anchor="middle" fill="#2f2a22">Règne installé</text>
<path d="M672,340 L694,311 L826,311 L848,340 L826,369 L694,369 Z" fill="#3a3230" stroke="#4a4033" stroke-width="2"/>
<text x="760" y="320" font-size="11" text-anchor="middle" fill="#f0e6d6" opacity="0.75">24010</text>
<text x="760" y="343" font-size="13" text-anchor="middle" fill="#f0e6d6">Aucune décision arrêtée</text>
<path d="M1142,340 L1164,311 L1296,311 L1318,340 L1296,369 L1164,369 Z" fill="#3a3230" stroke="#4a4033" stroke-width="2"/>
<text x="1230" y="320" font-size="11" text-anchor="middle" fill="#f0e6d6" opacity="0.75">24011</text>
<text x="1230" y="338" font-size="13" text-anchor="middle" fill="#f0e6d6">Le Donjon n'est pas encore</text>
<text x="1230" y="352" font-size="13" text-anchor="middle" fill="#f0e6d6">ouvert</text>
<path d="M760,438 L858,470 L760,502 L662,470 Z" fill="#e9dcc0" stroke="#4a4033" stroke-width="2"/>
<text x="760" y="450" font-size="11" text-anchor="middle" fill="#2f2a22" opacity="0.75">24020</text>
<text x="760" y="473" font-size="13" text-anchor="middle" fill="#2f2a22">Trancher avant l'urgence</text>
<text x="760" y="494" font-size="10" text-anchor="middle" fill="#2f2a22" opacity="0.7">à étudier</text>
<path d="M667,573 h186 v34 h-186 Z" fill="#efe9db" stroke="#4a4033" stroke-width="2"/>
<text x="760" y="580" font-size="11" text-anchor="middle" fill="#2f2a22" opacity="0.75">24030</text>
<text x="760" y="593" font-size="12" text-anchor="middle" fill="#2f2a22">Évaluer les options</text>
<text x="760" y="614" font-size="10" text-anchor="middle" fill="#2f2a22" opacity="0.7">à faire</text>
<path d="M667,619 h186 v34 h-186 Z" fill="#efe9db" stroke="#4a4033" stroke-width="2"/>
<text x="760" y="626" font-size="11" text-anchor="middle" fill="#2f2a22" opacity="0.75">24031</text>
<text x="760" y="639" font-size="12" text-anchor="middle" fill="#2f2a22">Trancher en Conseil</text>
<text x="760" y="660" font-size="10" text-anchor="middle" fill="#2f2a22" opacity="0.7">à faire — après 24030</text>
<path d="M667,665 h186 v34 h-186 Z" fill="#efe9db" stroke="#4a4033" stroke-width="2"/>
<text x="760" y="672" font-size="11" text-anchor="middle" fill="#2f2a22" opacity="0.75">24032</text>
<text x="760" y="680" font-size="12" text-anchor="middle" fill="#2f2a22">Sceller et diffuser la</text>
<text x="760" y="694" font-size="12" text-anchor="middle" fill="#2f2a22">décision</text>
<text x="760" y="706" font-size="10" text-anchor="middle" fill="#2f2a22" opacity="0.7">à faire — après 24031</text>
<text x="40" y="802" font-size="11" fill="#8a7f66">La nappe montre ; le registre fait foi. Dessinee depuis les registres — rien ici n'a ete saisi deux fois.</text>
</svg>