<svg xmlns="http://www.w3.org/2000/svg" viewBox="900 2700 900 900" width="1100" height="1100"><rect x="900" y="2700" width="900" height="900" fill="#1b1712"/><path d="M0.0 5.0L5270.0 5.0L5275.0 10.0L5275.0 3590.0L5270.0 3595.0L5240.0 3595.0L5230.0 3585.0L5190.0 3585.0L5180.0 3575.0L5150.0 3575.0L5140.0 3565.0L5110.0 3565.0L5100.0 3555.0L5060.0 3555.0L5050.0 3545.0L5010.0 3545.0L5000.0 3535.0L4970.0 3535.0L4960.0 3525.0L4920.0 3525.0L4910.0 3515.0L4880.0 3515.0L4870.0 3505.0L4845.0 3500.0L4845.0 3470.0L4835.0 3460.0L4835.0 3410.0L4825.0 3400.0L4825.0 3360.0L4815.0 3350.0L4815.0 3300.0L4805.0 3290.0L4805.0 3250.0L4795.0 3240.0L4795.0 3190.0L4785.0 3180.0L4785.0 3140.0L4775.0 3130.0L4775.0 3080.0L4765.0 3070.0L4765.0 3030.0L4755.0 3020.0L4755.0 2970.0L4745.0 2960.0L4745.0 2920.0L4735.0 2910.0L4735.0 2860.0L4725.0 2850.0L4725.0 2810.0L4715.0 2800.0L4715.0 2750.0L4705.0 2740.0L4705.0 2670.0L4695.0 2660.0L4695.0 2540.0L4685.0 2530.0L4685.0 2410.0L4675.0 2400.0L4675.0 2290.0L4665.0 2280.0L4665.0 2160.0L4655.0 2150.0L4655.0 2030.0L4645.0 2020.0L4645.0 1910.0L4635.0 1900.0L4635.0 1790.0L4625.0 1780.0L4625.0 1710.0L4615.0 1700.0L4615.0 1620.0L4605.0 1610.0L4605.0 1540.0L4595.0 1530.0L4595.0 1460.0L4585.0 1450.0L4585.0 1370.0L4575.0 1360.0L4575.0 1290.0L4565.0 1280.0L4565.0 1210.0L4555.0 1200.0L4565.0 1190.0L4565.0 1120.0L4575.0 1110.0L4575.0 1040.0L4585.0 1030.0L4585.0 950.0L4595.0 940.0L4595.0 870.0L4605.0 860.0L4605.0 790.0L4615.0 780.0L4615.0 700.0L4625.0 690.0L4625.0 620.0L4635.0 610.0L4630.0 595.0L4620.0 595.0L4610.0 585.0L4590.0 585.0L4580.0 575.0L4570.0 575.0L4560.0 565.0L4550.0 565.0L4540.0 555.0L4530.0 555.0L4420.0 495.0L4400.0 495.0L4390.0 485.0L4380.0 485.0L4370.0 475.0L4360.0 475.0L4350.0 465.0L4340.0 465.0L4230.0 405.0L4210.0 405.0L4200.0 395.0L4190.0 395.0L4180.0 385.0L4160.0 385.0L4150.0 375.0L4090.0 375.0L4080.0 365.0L4020.0 365.0L4010.0 355.0L3960.0 355.0L3950.0 345.0L3890.0 345.0L3880.0 335.0L3830.0 335.0L3820.0 325.0L3770.0 325.0L3760.0 315.0L3700.0 315.0L3690.0 305.0L3630.0 305.0L3620.0 295.0L3570.0 295.0L3560.0 285.0L3490.0 285.0L3480.0 295.0L3150.0 295.0L3140.0 305.0L2810.0 305.0L2800.0 315.0L2430.0 315.0L2420.0 325.0L2040.0 325.0L2030.0 335.0L1680.0 335.0L1670.0 325.0L1490.0 325.0L1480.0 315.0L1280.0 315.0L1270.0 305.0L1080.0 305.0L1070.0 295.0L890.0 295.0L880.0 285.0L750.0 285.0L740.0 275.0L630.0 275.0L620.0 265.0L520.0 265.0L510.0 255.0L400.0 255.0L390.0 245.0L290.0 245.0L280.0 235.0L170.0 235.0L160.0 225.0L50.0 225.0L40.0 215.0L0.0 215.0" fill="#1d2c33"/><path d="M4999.1 3600.0L4954.6 3580.0L4840.0 3552.5L4807.7 3530.0L4744.6 3240.0L4726.7 3100.0L4693.2 2990.0L4700.1 2980.0L4689.6 2960.0L4685.3 2880.0L4649.8 2740.0L4640.0 2718.3L4620.0 2708.1L4550.0 2695.2L4540.0 2700.7L4530.0 2688.4L4500.0 2710.3L4489.7 2700.0L4522.4 2650.0L4510.0 2624.8L4471.4 2600.0L4485.6 2590.0L4480.0 2579.5L4500.0 2591.6L4520.0 2573.3L4518.6 2510.0L4440.9 2470.0L4453.0 2440.0L4446.0 2430.0L4471.0 2420.0L4500.0 2374.2L4530.0 2375.7L4554.3 2320.0L4587.9 2290.0L4580.6 2280.0L4590.0 2219.3L4530.0 2164.8L4522.2 2120.0L4500.0 2113.6L4460.0 2165.7L4450.0 2154.1L4430.0 2166.3L4410.0 2221.4L4380.0 2157.0L4260.0 2139.1L4240.0 2155.7L4238.3 2190.0L4171.1 2240.0L4223.0 2190.0L4220.0 2145.9L4206.5 2150.0L4229.3 2110.0L4230.0 2070.0L4211.7 2040.0L4211.0 2010.0L4199.6 2000.0L4180.0 2002.4L4175.4 1990.0L4004.2 1980.0L4150.1 1970.0L4150.0 1958.1L4180.6 1970.0L4200.0 1966.9L4210.0 1954.4L4215.6 1940.0L4200.0 1930.0L4219.6 1920.0L4205.4 1910.0L4227.9 1890.0L4210.0 1867.8L4142.9 1850.0L4196.3 1840.0L4220.0 1820.0L4240.0 1818.8L4246.2 1770.0L4234.5 1760.0L4240.9 1740.0L4229.3 1720.0L4251.1 1720.0L4283.1 1680.0L4287.2 1670.0L4268.5 1650.0L4295.5 1650.0L4298.2 1600.0L4311.9 1600.0L4360.3 1550.0L4387.6 1500.0L4388.0 1450.0L4380.7 1440.0L4401.3 1430.0L4407.6 1390.0L4425.6 1380.0L4433.4 1340.0L4427.4 1330.0L4450.0 1329.2L4470.0 1340.9L4486.8 1320.0L4476.2 1270.0L4457.6 1260.0L4452.9 1180.0L4461.4 1170.0L4435.3 1160.0L4456.7 1150.0L4450.0 1139.3L4471.9 1160.0L4501.7 1160.0L4509.3 1100.0L4494.7 1090.0L4512.7 1080.0L4510.7 1050.0L4500.0 1063.1L4490.0 1047.2L4475.2 1050.0L4459.4 1020.0L4463.3 1010.0L4430.7 1000.0L4453.5 990.0L4440.0 980.0L4460.0 965.9L4473.5 970.0L4478.4 920.0L4497.0 920.0L4507.0 900.0L4500.0 888.6L4480.0 896.1L4462.9 890.0L4482.8 880.0L4486.4 870.0L4472.1 860.0L4480.0 850.0L4437.0 840.0L4474.9 830.0L4465.9 770.0L4481.4 710.0L4520.0 659.6L4560.0 644.9L4557.6 630.0L4480.0 605.0L4460.0 664.8L4420.0 641.7L4380.0 633.3L4370.0 642.7L4340.0 598.9L4310.0 589.2L4276.9 620.0L4275.1 640.0L4250.0 681.7L4265.4 640.0L4258.2 610.0L4270.0 613.4L4291.9 590.0L4290.0 577.3L4318.0 570.0L4310.5 560.0L4317.9 550.0L4300.0 519.2L4258.5 540.0L4281.1 510.0L4272.3 500.0L4220.0 461.6L4140.0 427.9L4000.0 404.7L3860.0 399.9L3760.0 376.1L3740.0 385.2L3720.0 371.4L3550.0 334.2L3250.0 343.8L3140.0 356.3L3127.2 360.0L3093.8 400.0L3094.9 430.0L3079.7 430.0L3060.0 454.3L3030.0 470.0L3028.8 510.0L3041.2 520.0L3020.0 519.4L3013.8 570.0L3021.8 580.0L3011.6 590.0L2970.0 587.6L2958.9 600.0L2956.1 590.0L2970.0 571.7L3003.9 570.0L2990.0 524.8L2920.0 536.4L2903.5 520.0L2880.0 516.1L2857.8 540.0L2854.4 570.0L2830.0 588.5L2840.0 610.9L2820.0 597.6L2804.4 600.0L2812.9 630.0L2800.0 642.2L2780.0 636.7L2770.0 646.4L2760.0 621.1L2750.0 618.8L2730.0 632.5L2710.0 660.0L2730.0 691.9L2710.0 678.0L2700.0 694.3L2690.0 674.7L2680.0 675.6L2670.0 702.9L2660.0 673.6L2650.0 681.0L2650.0 701.5L2580.0 710.7L2520.0 702.4L2480.0 711.2L2480.0 697.5L2470.0 691.9L2429.1 690.0L2384.7 730.0L2375.3 790.0L2387.1 800.0L2368.8 810.0L2367.1 830.0L2349.5 850.0L2350.5 870.0L2333.1 870.0L2312.6 890.0L2319.1 900.0L2304.7 920.0L2270.0 943.8L2284.0 970.0L2280.0 982.8L2270.0 967.2L2260.0 993.6L2227.4 940.0L2207.3 940.0L2212.1 930.0L2200.6 910.0L2178.9 920.0L2190.0 893.6L2180.0 888.4L2160.0 902.3L2160.0 876.7L2110.0 881.1L2093.4 870.0L2086.8 860.0L2100.0 810.0L2090.0 789.6L2010.0 787.1L2002.7 810.0L2019.6 830.0L2017.4 850.0L1990.0 871.2L2003.2 850.0L2000.5 830.0L1980.0 809.9L1911.7 800.0L1980.0 780.4L1968.7 760.0L1970.6 710.0L1958.1 700.0L1966.0 690.0L1960.0 675.7L1940.0 672.0L1940.0 657.1L1919.6 640.0L1879.6 630.0L1910.5 620.0L1912.8 580.0L1900.0 544.6L1850.0 526.8L1831.9 550.0L1850.8 570.0L1850.0 595.8L1810.0 580.0L1780.0 584.7L1750.0 570.0L1753.3 610.0L1724.6 670.0L1732.4 690.0L1717.9 690.0L1712.5 790.0L1720.0 802.2L1704.8 790.0L1700.0 668.2L1690.0 684.3L1680.0 681.5L1672.1 650.0L1620.0 593.5L1580.0 637.7L1550.0 652.1L1540.0 645.8L1536.2 660.0L1510.0 675.6L1510.0 692.6L1480.0 694.2L1470.0 683.4L1413.3 710.0L1404.1 740.0L1413.8 760.0L1404.3 790.0L1411.8 800.0L1361.3 830.0L1370.0 850.0L1360.0 857.3L1361.1 900.0L1350.0 921.1L1340.0 885.7L1330.0 905.0L1334.0 870.0L1320.0 843.8L1300.0 837.1L1280.0 854.1L1292.0 880.0L1267.6 870.0L1202.4 990.0L1270.0 1028.1L1300.0 1031.0L1312.4 1020.0L1327.4 1050.0L1313.2 1060.0L1350.6 1060.0L1340.0 1076.4L1310.0 1083.3L1329.2 1090.0L1322.4 1100.0L1360.0 1110.0L1330.8 1120.0L1288.3 1190.0L1240.0 1217.8L1230.0 1239.8L1220.0 1235.0L1190.0 1271.3L1180.0 1253.6L1160.0 1407.5L1152.8 1340.0L1140.0 1327.9L1130.0 1335.6L1126.2 1330.0L1120.0 1260.0L1070.0 1212.0L1000.0 1205.5L990.0 1212.2L960.0 1190.0L910.0 1182.7L900.0 1189.3L870.0 1141.1L840.0 1186.1L833.5 1170.0L850.0 1150.2L850.0 1138.5L836.1 1140.0L842.0 1120.0L860.0 1105.6L890.0 1113.6L915.3 1080.0L910.0 1065.3L885.6 1050.0L838.7 1050.0L845.0 1040.0L892.4 1030.0L900.0 1019.7L940.0 1028.2L981.4 990.0L976.8 980.0L993.2 960.0L990.0 944.5L970.0 931.8L950.0 944.4L910.0 903.3L900.0 875.0L890.0 876.7L860.0 933.9L830.0 931.6L820.0 940.0L810.0 923.1L790.0 921.6L780.0 940.9L750.0 939.0L730.0 952.9L740.4 930.0L767.7 910.0L768.3 900.0L740.0 900.0L740.6 890.0L740.0 900.0L730.0 898.8L690.0 931.8L712.6 900.0L702.8 890.0L720.0 886.8L734.5 870.0L720.0 827.8L700.0 838.8L680.0 817.7L676.2 790.0L640.0 732.0L630.0 732.0L620.0 757.4L610.0 739.3L590.0 751.1L570.0 701.6L550.0 684.9L510.0 682.3L480.0 693.8L481.8 630.0L440.0 594.0L350.0 606.2L330.0 627.1L330.0 645.3L310.0 660.0L266.2 640.0L270.0 626.9L290.0 622.2L315.0 650.0L317.7 680.0L304.8 710.0L274.5 730.0L291.3 780.0L250.0 768.4L240.0 775.3L230.0 758.3L220.0 766.4L210.0 752.8L180.0 755.0L135.6 790.0L150.0 821.4L120.0 807.7L100.0 828.5L90.0 871.0L80.0 828.4L64.6 840.0L60.0 857.4L56.3 840.0L69.8 810.0L50.0 788.3L20.0 783.1L0.0 757.0M1260.0 2839.0L1260.0 2870.0L1260.0 2839.0" fill="none" stroke="rgba(220,190,140,.16)" stroke-width="1"/><path d="M3099.1 3600.0L3130.0 3560.0L3135.3 3530.0L3158.4 3520.0L3160.0 3505.1L3170.0 3507.2L3186.6 3480.0L3232.6 3440.0L3231.7 3420.0L3212.4 3410.0L3230.0 3404.7L3270.0 3420.0L3271.4 3410.0L3258.3 3400.0L3267.9 3370.0L3240.0 3334.6L3224.7 3330.0L3240.0 3326.7L3280.0 3360.0L3330.0 3356.4L3363.3 3340.0L3362.9 3330.0L3339.0 3320.0L3310.4 3290.0L3295.3 3290.0L3302.7 3220.0L3335.0 3190.0L3328.4 3160.0L3341.6 3150.0L3310.0 3148.2L3290.0 3127.3L3270.0 3125.8L3260.0 3115.4L3210.0 3112.1L3196.4 3100.0L3210.0 3107.5L3260.0 3104.1L3270.0 3113.9L3300.0 3108.4L3297.9 3120.0L3310.0 3131.3L3340.9 3130.0L3360.0 3097.0L3430.0 3046.3L3440.0 3053.3L3453.3 3030.0L3450.0 3018.3L3470.0 3030.2L3506.7 3010.0L3530.0 2983.6L3530.0 2959.3L3550.0 2978.7L3570.0 2975.1L3580.0 2960.6L3590.0 2974.9L3599.5 2970.0L3610.8 2950.0L3592.2 2930.0L3623.8 2910.0L3617.7 2900.0L3629.3 2870.0L3640.0 2901.7L3699.5 2890.0L3732.2 2840.0L3820.0 2763.1L3838.9 2760.0L3843.3 2740.0L3835.6 2730.0L3842.5 2720.0L3832.8 2710.0L3851.3 2710.0L3892.1 2650.0L3913.1 2570.0L3913.1 2510.0L3898.8 2460.0L3916.0 2310.0L3902.0 2150.0L3922.1 2120.0L3904.2 2100.0L3913.6 2090.0L3903.9 2080.0L3913.1 2060.0L3902.4 2040.0L3880.0 2030.5L3850.0 2028.0L3824.4 2040.0L3838.6 2030.0L3788.8 2010.0L3810.0 2016.4L3893.8 2010.0L3865.6 2000.0L3900.0 1987.9L3910.1 1940.0L3940.4 1890.0L4130.0 1664.7L4184.9 1580.0L4176.9 1560.0L4193.3 1560.0L4303.2 1370.0L4325.7 1220.0L4313.5 990.0L4290.0 907.6L4213.8 830.0L4080.0 739.1L4036.4 730.0L3990.0 693.2L3740.0 684.0L3690.0 694.9L3590.0 686.5L3560.0 715.0L3490.0 738.4L3370.4 840.0L3350.9 860.0L3349.4 890.0L3307.9 940.0L3310.4 950.0L3291.9 950.0L3284.9 960.0L3282.5 990.0L3248.7 1030.0L3256.0 1090.0L3220.0 1120.0L3226.6 1170.0L3210.0 1182.8L3185.0 1180.0L3184.2 1190.0L3210.3 1200.0L3214.2 1240.0L3205.8 1250.0L3230.0 1255.2L3240.7 1270.0L3230.0 1263.7L3194.6 1270.0L3162.7 1290.0L3170.3 1310.0L3165.2 1330.0L3150.0 1344.5L3140.0 1340.5L3137.5 1350.0L3155.6 1370.0L3120.0 1376.1L3120.0 1407.4L3135.0 1420.0L3120.0 1464.0L3102.6 1430.0L3100.0 1375.0L3086.1 1370.0L3088.9 1360.0L3066.4 1320.0L3050.0 1317.1L3030.0 1334.3L3020.0 1331.1L2980.0 1379.7L2960.3 1370.0L2940.0 1335.9L2920.0 1331.5L2903.8 1340.0L2890.0 1364.6L2870.0 1362.2L2827.6 1400.0L2840.0 1420.5L2900.0 1423.8L2917.0 1440.0L2920.0 1494.6L2900.0 1436.8L2858.1 1440.0L2884.9 1470.0L2880.0 1504.8L2873.8 1470.0L2850.1 1450.0L2840.0 1445.2L2830.0 1479.6L2822.9 1430.0L2810.0 1423.0L2790.0 1434.3L2780.0 1493.3L2770.0 1448.8L2750.0 1431.1L2720.0 1464.6L2650.0 1469.3L2630.1 1490.0L2636.2 1480.0L2630.0 1461.2L2590.0 1458.8L2574.6 1480.0L2580.0 1491.2L2560.0 1469.5L2533.7 1490.0L2530.1 1510.0L2525.2 1490.0L2548.8 1460.0L2520.0 1473.7L2530.0 1447.0L2480.0 1450.2L2440.0 1437.8L2430.0 1457.7L2420.0 1438.4L2406.7 1440.0L2404.4 1410.0L2390.0 1410.7L2392.1 1400.0L2357.4 1370.0L2342.6 1270.0L2305.1 1210.0L2223.1 1110.0L2120.0 1026.6L2070.0 999.3L1940.0 981.7L1850.0 955.8L1740.0 956.7L1730.0 976.5L1710.0 957.0L1700.0 970.7L1660.0 983.2L1603.8 1030.0L1600.0 1044.1L1590.0 1038.7L1550.0 1049.8L1470.0 1117.5L1350.0 1308.4L1340.0 1345.7L1320.0 1370.0L1312.0 1410.0L1296.5 1420.0L1280.8 1500.0L1271.2 1510.0L1274.5 1570.0L1261.3 1580.0L1258.8 1600.0L1277.6 1610.0L1250.4 1620.0L1266.2 1630.0L1250.0 1636.4L1237.1 1630.0L1230.0 1662.4L1180.0 1687.2L1160.0 1689.7L1120.0 1655.2L1080.0 1658.5L1050.0 1679.1L1050.0 1690.0L1036.9 1690.0L1030.0 1709.2L1010.0 1679.4L990.0 1675.5L970.0 1697.1L962.6 1730.0L910.0 1782.4L910.0 1810.2L890.0 1806.5L870.0 1783.5L840.0 1780.0L810.0 1834.3L800.0 1795.0L780.0 1775.7L760.0 1774.1L736.0 1820.0L730.0 1824.2L720.0 1813.5L710.0 1825.8L698.2 1790.0L640.0 1755.4L610.0 1756.8L580.0 1774.7L560.0 1795.5L550.0 1833.1L530.0 1840.6L514.2 1830.0L532.4 1820.0L540.8 1760.0L515.6 1760.0L483.5 1700.0L470.0 1697.9L428.9 1730.0L470.0 1682.5L497.1 1680.0L498.0 1660.0L473.6 1630.0L476.5 1620.0L428.1 1580.0L385.4 1580.0L414.3 1560.0L368.3 1550.0L410.9 1540.0L417.6 1530.0L405.0 1510.0L379.2 1520.0L398.3 1490.0L395.9 1450.0L370.0 1418.9L355.7 1420.0L320.0 1376.8L300.0 1375.8L290.0 1399.6L277.2 1390.0L280.0 1368.1L271.1 1360.0L250.0 1370.7L261.1 1350.0L237.1 1350.0L258.8 1330.0L255.7 1310.0L240.0 1297.8L230.0 1303.5L230.0 1282.9L220.0 1276.7L200.0 1283.8L200.0 1267.4L175.1 1250.0L177.3 1240.0L139.4 1230.0L166.2 1220.0L163.3 1200.0L100.0 1141.8L80.0 1136.2L65.0 1110.0L30.0 1105.4L10.0 1119.3L0.2 1110.0M620.0 2890.0L636.0 2880.0L610.0 2880.0L620.0 2890.0L602.5 2900.0L603.9 2940.0L620.0 2952.9L640.0 2953.6L644.6 2980.0L660.0 2997.4L690.0 3002.7L700.0 3016.3L710.0 3012.4L720.0 3021.2L730.0 3011.7L770.0 3014.5L776.7 3010.0L770.0 2967.1L790.0 2992.7L820.0 2991.0L832.3 2980.0L830.0 2954.0L790.0 2935.0L778.0 2890.0L795.0 2840.0L820.0 2836.0L861.1 2880.0L860.0 2892.5L834.2 2920.0L840.0 2939.4L890.0 2950.0L888.1 2980.0L920.0 2996.2L940.0 3030.7L946.5 3090.0L910.0 3098.9L900.0 3111.5L910.0 3101.2L940.0 3103.0L953.6 3090.0L960.0 3027.2L970.0 3015.9L981.2 3020.0L969.1 3000.0L969.4 2960.0L990.0 2953.5L998.8 3020.0L1010.0 3022.5L1030.0 3078.6L1040.0 3055.3L1070.0 3069.5L1090.0 3061.4L1119.5 3090.0L1149.2 3140.0L1150.7 3160.0L1119.4 3200.0L1140.0 3184.3L1150.0 3206.8L1155.7 3180.0L1170.0 3164.1L1204.7 3170.0L1230.0 3117.7L1320.0 3124.7L1340.0 3143.7L1390.0 3132.6L1414.7 3160.0L1410.0 3181.6L1440.0 3136.4L1450.0 3161.2L1460.0 3139.4L1470.0 3145.9L1480.8 3110.0L1490.0 3105.9L1530.0 3117.4L1560.0 3116.2L1580.0 3098.7L1590.0 3103.4L1588.9 3090.0L1604.4 3070.0L1592.4 3060.0L1593.3 3040.0L1640.0 2997.9L1646.0 2970.0L1670.0 2946.9L1830.0 2948.6L1834.3 3010.0L1786.8 3040.0L1775.9 3090.0L1792.6 3090.0L1840.0 3126.8L1847.5 3150.0L1790.0 3216.3L1770.0 3208.1L1770.0 3225.1L1730.0 3240.0L1770.0 3250.0L1770.0 3270.3L1750.0 3293.0L1760.0 3299.5L1790.0 3292.3L1860.0 3338.3L1859.2 3350.0L1810.0 3361.8L1870.0 3406.2L1880.0 3380.0L1890.0 3381.5L1900.0 3405.0L1910.0 3370.8L1920.0 3375.4L1920.0 3356.0L1930.0 3350.0L1938.1 3380.0L1961.0 3390.0L1969.0 3430.0L1980.0 3434.1L1988.1 3420.0L1970.0 3373.8L1990.0 3362.9L2020.0 3366.9L2090.0 3351.0L2140.0 3296.7L2210.0 3273.6L2219.0 3280.0L2211.8 3300.0L2220.0 3342.9L2228.4 3300.0L2240.0 3293.2L2250.0 3306.8L2269.7 3280.0L2264.1 3250.0L2290.0 3235.6L2301.7 3240.0L2290.0 3216.3L2310.0 3208.0L2330.7 3220.0L2300.0 3180.8L2260.0 3185.0L2261.8 3150.0L2215.0 3120.0L2212.1 3050.0L2261.7 3010.0L2246.9 2960.0L2278.9 2920.0L2282.5 2850.0L2300.0 2833.8L2340.0 2839.6L2407.9 2750.0L2440.0 2751.4L2430.0 2733.9L2413.9 2730.0L2429.4 2720.0L2407.4 2710.0L2440.0 2667.8L2451.5 2670.0L2445.2 2660.0L2471.4 2630.0L2410.0 2680.1L2360.0 2678.7L2345.0 2660.0L2348.8 2630.0L2379.3 2620.0L2384.1 2610.0L2377.1 2600.0L2385.6 2590.0L2384.2 2550.0L2410.0 2520.0L2376.6 2550.0L2373.4 2590.0L2350.0 2610.7L2300.9 2560.0L2321.4 2520.0L2310.0 2496.0L2295.5 2500.0L2295.6 2470.0L2321.1 2460.0L2291.9 2450.0L2296.5 2420.0L2287.0 2410.0L2318.3 2400.0L2277.9 2390.0L2229.8 2340.0L2231.1 2320.0L2260.0 2300.0L2270.0 2276.1L2250.0 2266.6L2230.0 2274.2L2200.0 2264.3L2187.5 2250.0L2190.0 2225.7L2200.0 2219.5L2220.0 2226.5L2240.4 2210.0L2210.0 2196.0L2183.6 2200.0L2150.0 2163.6L2133.1 2170.0L2114.4 2140.0L2109.1 2100.0L2132.5 2090.0L2129.0 2050.0L2190.4 1990.0L2178.5 1970.0L2185.5 1900.0L2165.6 1890.0L2175.3 1870.0L2170.0 1852.9L2150.0 1878.1L2110.0 1867.9L2113.3 1880.0L2100.0 1899.2L2040.0 1897.2L2020.0 1868.2L2010.0 1890.5L1980.0 1880.9L1920.0 1888.8L1920.0 1913.2L1900.0 1918.8L1890.0 1906.1L1830.0 1921.9L1800.0 1891.3L1670.0 1897.5L1560.0 1921.8L1540.0 1893.1L1480.0 1904.1L1410.0 1898.1L1380.0 1909.6L1368.7 1900.0L1365.1 1880.0L1372.6 1870.0L1350.0 1860.0L1353.8 1880.0L1345.0 1900.0L1307.2 1900.0L1330.0 1905.8L1340.0 1920.0L1310.0 1941.4L1260.0 1949.0L1250.0 1945.3L1190.0 1850.0L1182.5 1820.0L1160.0 1802.7L1150.0 1820.5L1140.0 1803.2L1130.0 1825.8L1110.0 1840.0L1048.3 1850.0L1046.7 1860.0L1110.7 1870.0L1120.6 1880.0L1113.1 1900.0L1123.1 1970.0L1107.5 1970.0L1101.8 1920.0L1090.0 1916.1L1069.3 1920.0L1080.2 1960.0L1050.0 2001.6L1010.0 1991.0L997.0 1970.0L988.3 1990.0L1000.0 2070.0L990.0 2090.0L980.0 2090.8L963.8 2060.0L976.0 1990.0L960.0 1973.2L940.0 1971.4L920.0 1982.7L898.1 1970.0L903.0 2000.0L883.1 2020.0L887.4 2080.0L880.0 2095.3L857.5 2100.0L870.0 2122.7L900.0 2104.5L902.7 2130.0L872.9 2170.0L830.9 2200.0L834.1 2240.0L810.0 2267.5L750.0 2266.3L740.0 2259.6L742.1 2240.0L720.0 2227.6L710.0 2260.0L690.0 2271.9L660.0 2266.2L650.0 2260.0L640.0 2208.8L618.4 2240.0L620.0 2267.3L590.0 2296.3L546.3 2260.0L576.2 2310.0L502.1 2350.0L540.4 2370.0L542.6 2380.0L520.0 2398.1L500.0 2390.0L491.8 2400.0L508.3 2420.0L490.0 2440.0L480.0 2435.0L470.0 2406.3L449.2 2430.0L450.0 2443.6L420.0 2425.1L405.9 2430.0L440.9 2460.0L441.9 2480.0L421.8 2530.0L360.0 2608.2L350.0 2594.5L260.0 2607.7L250.0 2626.8L220.0 2623.7L204.1 2610.0L199.3 2590.0L217.9 2570.0L216.7 2550.0L236.9 2530.0L224.7 2520.0L219.5 2470.0L201.3 2570.0L165.7 2590.0L153.7 2610.0L151.0 2660.0L133.9 2680.0L136.8 2720.0L180.0 2737.4L230.0 2784.4L230.0 2817.7L200.0 2846.8L170.0 2845.8L90.0 2938.0L80.0 2927.4L68.6 2930.0L60.0 2940.0L70.0 2960.0L50.0 2978.0L42.0 2970.0L41.8 2930.0L5.7 2900.0L10.0 2883.9L0.0 2896.7M850.0 2997.8L836.1 3010.0L850.0 3035.2L863.0 3030.0L872.5 3010.0L850.0 2997.8M1530.0 3221.2L1521.1 3240.0L1530.0 3250.0L1553.0 3230.0L1530.0 3221.2M1630.0 3299.5L1613.6 3310.0L1604.8 3330.0L1610.0 3338.9L1630.0 3299.5M1830.0 3497.6L1810.0 3511.1L1897.2 3500.0L1890.0 3493.2L1830.0 3497.6" fill="none" stroke="rgba(220,190,140,.16)" stroke-width="1"/><path d="M1752.0 2784.0L1768.7 2760.6L1812.0 2660.6L1812.0 2628.0L1812.0 2602.9L1812.0 2595.9L1812.0 2571.0L1813.5 2555.5L1816.4 2536.6L1817.3 2530.2L1826.0 2498.7L1832.8 2480.0L1846.3 2456.3L1853.3 2445.1L1856.5 2440.1L1863.0 2433.0L1888.4 2406.2L1897.3 2391.2L1903.1 2381.5L1911.3 2365.1L1917.4 2347.9L1923.2 2331.2L1929.6 2291.9L1931.5 2277.6L1932.0 2255.9L1932.0 2246.3L1932.0 2221.2L1932.0 2213.1L1932.7 2199.1L1938.3 2146.3L1940.5 2135.7L1977.8 2054.3L1978.1 2051.8L1979.1 2039.9L1979.8 2032.3L1980.0 2028.0L1980.0 2008.5L1992.1 1961.3L1999.8 1947.1L2001.7 1943.6L2030.2 1905.8L2032.9 1903.1L2052.0 1884.0L2074.4 1868.2L2079.0 1865.2L2150.7 1832.2L2172.0 1825.9L2193.6 1819.4L2215.2 1815.0L2228.8 1812.6L2252.6 1808.3L2313.6 1797.8L2364.0 1788.0L2305.9 1788.0L2235.3 1788.0L2163.9 1793.8L2139.4 1800.8L2131.0 1803.2L2119.5 1807.1L2064.0 1848.0L2050.8 1858.5L2028.8 1874.5L2005.6 1887.5L1974.8 1897.0L1878.1 1907.0L1864.2 1907.3L1812.0 1908.0L1790.5 1908.0L1740.3 1905.0L1737.0 1904.6L1718.6 1902.5L1693.7 1898.1L1589.4 1863.6L1502.9 1816.4L1491.5 1810.0L1452.0 1788.0L1405.3 1827.6L1391.9 1838.5L1356.3 1866.0L1344.4 1873.5L1332.9 1880.9L1291.7 1900.1L1246.5 1908.0L1243.5 1908.0L1236.0 1908.0L1218.0 1908.0L1159.0 1908.6L1068.0 1920.0L0.0 2112.0" fill="none" stroke="#6d5c42" stroke-width="11" opacity=".55" stroke-linejoin="round" stroke-linecap="round"/><path d="M1812.0 2628.0L1840.8 2582.6L1854.7 2560.7L1957.4 2377.5L1972.0 2331.3L1973.1 2325.9L1976.7 2308.1L1980.0 2292.2L1980.0 2284.5L1980.8 2230.5L1980.9 2228.5L1983.7 2197.4L1985.8 2188.1L1987.0 2182.7L1988.3 2176.5L2001.6 2139.9L2010.6 2124.1L2015.1 2107.7L2017.9 2092.8L2018.9 2083.1L2020.3 2053.9L2019.5 2038.4L2018.7 2023.4L2017.5 2008.3L2016.7 1999.2L2015.9 1990.6L2011.9 1951.4L2009.7 1932.2L2005.6 1887.5M1713.4 2699.8L1685.6 2733.2M1619.5 2569.9L1579.8 2627.9M2078.7 2787.9L2069.0 2793.7L2060.8 2797.8L2030.1 2817.1L1982.9 2854.6L1974.9 2859.0L1949.1 2873.3L1905.9 2908.2M1846.3 2624.0L1807.5 2625.4L1798.6 2624.5L1726.5 2632.3L1717.3 2632.4L1714.9 2635.3M1807.5 2625.4L1850.9 2643.7L1872.0 2651.4L1916.4 2676.0L1941.9 2686.1L1967.7 2694.7L1999.3 2710.8L2004.2 2713.7L2045.7 2770.0L2053.8 2773.1M1783.7 2702.3L1792.7 2704.0L1794.5 2704.5L1872.1 2737.1L1883.9 2725.4L1888.1 2734.6L1921.7 2783.1L1929.2 2794.7L1953.8 2838.2L1970.2 2835.7M1872.1 2737.1L1894.7 2747.3M1661.5 2467.4L1648.7 2478.4L1581.3 2542.2L1516.3 2599.4L1507.3 2609.8L1428.4 2656.4M1780.9 2640.2L1745.0 2651.6L1695.4 2676.6L1689.2 2682.3M1705.9 2561.0L1676.8 2575.0L1654.8 2593.5L1621.0 2616.5L1618.5 2620.9L1608.9 2640.1L1606.3 2644.6L1550.6 2728.2M1717.3 2632.4L1694.9 2637.9L1615.9 2692.9M1654.3 2698.6L1655.4 2709.7L1643.8 2726.6" fill="none" stroke="#6d5c42" stroke-width="6" opacity=".55" stroke-linejoin="round" stroke-linecap="round"/><path d="M1850.9 2643.7L1812.0 2660.6M1753.4 2740.5L1722.0 2752.1L1731.8 2743.5L1767.0 2733.4L1839.2 2762.6M1768.7 2760.6L1780.6 2767.4L1821.7 2786.6L1871.7 2787.9L1844.6 2766.9L1816.1 2747.7L1911.6 2738.0L1907.5 2703.9L1868.5 2691.9L1843.5 2681.6L1797.0 2671.6L1774.9 2676.7L1743.3 2708.5L1761.9 2698.6L1794.5 2704.5M1780.6 2767.4L1802.3 2779.0L1841.1 2795.6M1868.4 2568.1L1882.3 2575.6L1926.8 2595.4L1910.2 2588.2L1906.7 2584.3L1887.2 2572.8L1868.4 2568.1L1854.7 2560.7M1840.8 2582.6L1874.7 2599.9L1892.5 2614.6L1917.3 2624.9L1953.0 2644.1L2023.6 2659.6L2026.1 2662.7L2045.4 2688.5L2063.4 2710.3L2071.9 2725.7L2103.5 2768.7M1796.5 2595.9L1773.5 2595.0L1789.7 2595.2L1803.5 2595.8L1812.0 2595.9M1819.3 2659.6L1772.2 2677.3L1774.9 2676.7M1780.9 2640.2L1745.0 2651.6M1812.0 2571.0L1806.6 2569.9L1783.9 2575.0L1787.9 2574.8L1750.7 2585.7L1713.6 2600.7M1777.3 2711.4L1746.8 2724.7L1754.6 2720.2L1765.5 2713.7L1777.3 2711.4L1792.7 2704.0M1726.5 2632.3L1694.9 2637.9M1686.7 2601.3L1668.1 2612.8L1654.5 2627.6L1645.3 2636.0L1627.0 2652.8L1640.4 2641.8L1671.1 2622.1L1691.1 2621.9L1700.0 2606.6L1701.0 2606.2L1720.1 2600.5L1734.5 2590.5L1746.8 2587.2L1769.2 2580.9L1766.9 2575.6L1783.9 2575.0M1772.2 2677.3L1740.0 2679.7L1716.1 2697.7L1721.5 2690.0M1621.0 2616.5L1608.9 2640.1M1618.5 2620.9L1606.3 2644.6M1685.6 2733.2L1676.4 2753.3M1614.0 2696.6L1605.6 2715.8L1611.2 2702.0L1614.0 2696.6L1615.9 2692.9L1614.9 2678.3L1621.3 2668.0L1627.0 2652.8M1871.7 2787.9L1882.0 2776.1M1844.6 2766.9L1854.2 2761.8L1914.0 2796.8L1921.7 2783.1M1835.0 2616.8L1856.7 2626.9L1870.8 2635.1L1872.0 2651.4M1812.0 2602.9L1846.3 2624.0L1856.7 2626.9M1914.0 2796.8L1897.9 2824.8L1879.1 2837.9L1882.3 2833.0L1889.6 2829.2L1897.9 2824.8M1695.4 2676.6L1689.2 2682.3L1685.2 2685.6L1676.2 2693.3L1670.5 2703.3L1685.2 2685.6M1743.3 2708.5L1733.4 2731.6L1746.8 2724.7M1733.4 2731.6L1715.9 2743.2L1720.5 2753.3L1722.0 2752.1M1720.1 2600.5L1706.1 2606.1L1701.0 2606.2M1706.1 2606.1L1691.1 2621.9M1716.1 2697.7L1713.4 2699.8L1694.0 2714.0M1596.9 2483.0L1568.1 2493.5L1523.4 2530.6L1507.8 2552.6L1475.1 2575.9L1454.8 2590.2L1448.7 2596.1L1436.3 2606.6L1413.9 2621.9M1519.3 2562.6L1518.5 2596.5M1645.3 2636.0L1640.4 2641.8M1670.5 2703.3L1655.4 2709.7M1596.4 2610.6L1579.8 2627.9L1578.3 2629.6L1562.9 2645.2L1555.8 2663.9M1573.1 2584.1L1564.7 2605.2L1543.9 2630.9L1534.8 2652.9L1514.4 2696.4M1634.4 2647.0L1621.3 2668.0M1614.9 2678.3L1611.2 2702.0M1520.1 2568.8L1500.8 2580.5L1488.0 2592.5L1473.9 2610.3L1440.2 2627.4L1448.7 2596.1M1440.2 2627.4L1436.0 2638.7L1428.4 2656.4M1562.9 2645.2L1555.9 2663.6L1554.2 2686.6L1551.7 2694.6L1555.9 2663.6M1510.5 2643.6L1497.5 2668.6L1499.4 2663.1L1510.5 2643.6L1507.3 2609.8M1674.5 2694.7L1654.3 2698.6L1643.8 2726.6" fill="none" stroke="#6d5c42" stroke-width="3" opacity=".55" stroke-linejoin="round" stroke-linecap="round"/><path d="M1752.0 2784.0L1752.0 2784.0" fill="none" stroke="#6d5c42" stroke-width="4" opacity=".55" stroke-linejoin="round" stroke-linecap="round"/><path d="M1750 2737L1757 2734L1762 2744L1755 2747ZM1737 2732L1740 2730L1742 2735L1739 2737ZM1734 2734L1737 2732L1740 2733L1744 2741L1738 2745L1733 2736ZM1779 2711L1786 2707L1790 2718L1785 2720ZM1788 2719L1785 2726L1776 2720L1778 2716ZM1787 2713L1793 2711L1797 2721L1792 2724ZM1776 2704L1782 2705L1780 2716L1773 2715ZM1800 2729L1803 2721L1813 2726L1809 2734ZM1791 2723L1794 2715L1798 2717L1795 2725ZM1844 2680L1852 2683L1850 2689L1848 2693L1845 2692L1846 2688L1842 2686L1844 2680ZM1843 2672L1852 2675L1850 2680L1848 2679L1846 2684L1843 2683L1845 2678L1842 2677L1843 2672ZM1844 2662L1846 2663L1849 2664L1852 2665L1850 2670L1848 2669L1846 2675L1842 2673L1844 2667L1842 2667L1844 2662ZM1815 2633L1818 2629L1827 2635L1825 2639ZM1829 2630L1831 2627L1841 2633L1838 2636ZM1829 2626L1831 2622L1841 2627L1837 2633ZM1840 2625L1843 2622L1853 2627L1849 2632ZM1787 2617L1793 2617L1791 2628L1785 2628ZM1839 2618L1843 2612L1852 2618L1848 2624ZM1806 2608L1806 2612L1806 2616L1800 2616L1800 2612L1796 2612L1796 2608L1800 2608L1806 2608ZM1786 2611L1794 2612L1793 2618L1789 2618L1789 2623L1785 2622L1785 2617L1786 2611L1789 2612ZM1826 2601L1824 2604L1817 2600L1819 2597ZM1830 2593L1829 2596L1827 2599L1822 2596L1824 2593L1820 2590L1821 2587L1826 2590L1830 2593ZM1799 2594L1795 2594L1795 2588L1800 2588ZM1820 2620L1823 2614L1828 2617L1825 2623ZM1834 2599L1838 2592L1848 2598L1843 2605ZM1843 2608L1847 2601L1856 2607L1852 2613ZM1837 2594L1841 2588L1850 2594L1846 2600ZM1839 2592L1843 2585L1852 2591L1848 2597ZM1859 2593L1865 2597L1860 2607L1854 2603ZM1869 2599L1875 2602L1873 2607L1866 2604ZM1879 2601L1876 2599L1883 2590L1886 2593ZM1867 2609L1874 2614L1870 2618L1868 2616L1865 2621L1863 2619L1866 2615L1864 2613L1867 2609ZM1869 2636L1870 2640L1859 2641L1858 2637ZM1886 2607L1882 2604L1889 2595L1893 2599ZM1908 2589L1911 2590L1915 2592L1913 2596L1912 2596L1910 2602L1906 2600L1909 2594L1906 2593L1908 2589ZM1873 2615L1877 2618L1870 2626L1866 2623ZM1870 2639L1870 2644L1859 2644L1859 2640ZM1912 2591L1919 2594L1915 2604L1908 2601ZM1885 2610L1891 2615L1884 2624L1878 2619ZM1873 2641L1872 2633L1883 2633L1884 2640ZM1869 2647L1870 2654L1859 2655L1858 2647ZM1906 2618L1901 2616L1905 2606L1910 2608ZM1896 2618L1899 2619L1895 2629L1892 2628ZM1873 2641L1872 2634L1883 2633L1884 2640ZM1873 2648L1873 2641L1884 2640L1884 2647ZM1894 2617L1901 2620L1896 2630L1890 2627ZM1887 2645L1887 2638L1898 2638L1898 2644ZM1873 2649L1873 2642L1884 2642L1884 2648ZM1913 2621L1906 2618L1910 2608L1917 2611ZM1905 2632L1910 2634L1906 2644L1900 2642ZM1883 2655L1883 2651L1894 2651L1894 2654ZM1911 2637L1916 2640L1911 2650L1905 2647ZM1904 2646L1909 2649L1903 2658L1898 2655ZM1899 2663L1893 2660L1899 2650L1905 2653ZM1909 2651L1916 2655L1914 2660L1910 2658L1907 2662L1904 2661L1907 2656L1909 2651L1913 2653ZM1906 2667L1903 2665L1899 2663L1902 2658L1906 2660L1908 2655L1912 2657L1909 2662L1906 2667ZM1912 2670L1906 2667L1909 2661L1912 2657L1914 2658L1912 2662L1915 2664L1912 2670ZM1875 2741L1882 2744L1877 2754L1870 2751ZM1870 2755L1877 2755L1877 2766L1870 2766ZM1888 2783L1885 2782L1892 2786L1889 2792L1884 2789L1882 2793L1880 2791L1885 2782L1882 2788ZM1882 2731L1888 2725L1892 2729L1896 2733L1893 2735L1890 2731L1886 2735L1882 2731ZM1886 2699L1894 2702L1893 2707L1891 2712L1888 2711L1890 2707L1884 2705L1886 2699ZM1886 2747L1890 2749L1893 2750L1891 2755L1888 2754L1885 2759L1882 2757L1884 2752L1886 2747ZM1893 2783L1890 2781L1886 2779L1889 2774L1892 2769L1895 2771L1893 2776L1896 2778L1893 2783ZM1891 2781L1894 2783L1887 2779L1890 2775L1893 2777L1896 2772L1900 2774L1894 2783L1897 2779ZM1893 2742L1896 2742L1897 2747L1894 2747ZM1901 2740L1903 2740L1904 2751L1902 2751ZM1901 2759L1904 2764L1899 2768L1897 2765L1894 2767L1892 2765L1895 2762L1901 2759L1901 2759L1903 2761ZM1903 2761L1907 2767L1902 2771L1898 2774L1896 2771L1900 2768L1898 2765L1903 2761ZM1911 2762L1906 2755L1912 2752L1914 2755L1918 2753L1920 2755L1916 2758L1911 2762L1909 2759ZM1903 2762L1904 2764L1906 2766L1907 2767L1902 2770L1901 2769L1897 2772L1895 2770L1900 2767L1898 2765L1903 2762ZM1894 2783L1890 2781L1888 2780L1891 2775L1893 2776L1896 2771L1898 2773L1895 2777L1896 2778L1894 2783ZM1609 2590L1614 2584L1622 2591L1618 2597ZM1604 2598L1609 2591L1614 2594L1618 2597L1616 2600L1612 2598L1609 2602L1604 2598ZM1628 2608L1622 2599L1625 2597L1627 2601L1632 2598L1635 2603L1631 2606L1628 2608L1624 2603ZM1641 2599L1638 2601L1632 2592L1635 2590ZM1632 2613L1636 2610L1639 2608L1642 2613L1645 2617L1642 2619L1639 2615L1635 2618L1632 2613ZM1633 2612L1635 2610L1642 2619L1639 2621ZM1651 2628L1649 2630L1645 2634L1641 2630L1645 2627L1642 2622L1644 2620L1648 2624L1651 2628ZM1644 2635L1637 2627L1639 2625L1643 2629L1646 2626L1650 2630L1646 2633L1644 2635L1641 2631ZM1648 2636L1651 2632L1659 2640L1655 2644ZM1654 2635L1656 2634L1662 2643L1660 2644L1656 2639L1651 2642L1649 2638L1656 2634L1659 2638ZM1656 2634L1660 2631L1662 2630L1666 2635L1663 2637L1666 2641L1662 2643L1660 2639L1656 2634ZM1641 2643L1644 2642L1650 2651L1647 2652ZM1664 2655L1663 2656L1661 2658L1659 2659L1656 2654L1658 2653L1655 2649L1657 2647L1660 2651L1661 2651L1664 2655ZM1672 2650L1668 2653L1662 2644L1665 2641ZM1662 2664L1663 2664L1666 2662L1668 2661L1671 2665L1669 2666L1672 2671L1670 2673L1666 2668L1665 2669L1662 2664ZM1662 2664L1664 2664L1665 2662L1667 2661L1670 2665L1669 2666L1672 2671L1670 2673L1666 2668L1665 2669L1662 2664ZM1662 2665L1664 2663L1667 2661L1668 2661L1670 2665L1669 2666L1673 2670L1670 2672L1667 2667L1664 2669L1662 2665ZM1674 2667L1675 2666L1678 2665L1680 2663L1682 2667L1680 2669L1684 2674L1682 2675L1678 2670L1677 2671L1674 2667ZM1685 2684L1683 2685L1681 2687L1680 2688L1677 2684L1678 2683L1674 2678L1676 2677L1680 2682L1682 2680L1685 2684ZM1684 2689L1690 2684L1697 2693L1691 2697ZM1703 2705L1697 2709L1691 2701L1697 2696ZM1689 2695L1695 2691L1702 2699L1696 2704ZM1708 2702L1703 2705L1697 2696L1702 2693ZM1697 2709L1693 2713L1687 2704L1691 2701ZM1694 2718L1700 2714L1707 2722L1701 2727ZM1723 2589L1731 2592L1727 2602L1720 2600ZM1738 2593L1732 2591L1735 2580L1741 2583ZM1722 2601L1725 2599L1729 2605L1726 2607ZM1729 2596L1732 2595L1736 2603L1733 2605ZM1727 2597L1735 2594L1739 2604L1731 2607ZM1728 2597L1735 2594L1739 2604L1732 2607ZM1772 2597L1779 2597L1779 2608L1771 2608ZM1733 2628L1726 2629L1725 2618L1732 2618ZM1748 2627L1743 2627L1741 2626L1740 2617L1749 2616L1750 2625ZM1740 2628L1735 2628L1733 2627L1732 2618L1740 2617L1741 2626ZM1696 2640L1703 2639L1704 2650L1699 2651ZM1766 2625L1758 2626L1758 2615L1763 2614ZM1772 2624L1766 2625L1765 2614L1772 2613ZM1756 2646L1750 2648L1748 2637L1754 2635ZM1758 2645L1754 2646L1750 2648L1748 2642L1746 2637L1750 2636L1752 2640L1756 2639L1758 2645ZM1746 2654L1750 2652L1754 2651L1756 2657L1752 2658L1753 2663L1749 2664L1746 2654L1748 2660ZM1752 2666L1748 2666L1748 2655L1751 2655L1751 2660L1755 2660L1755 2666L1748 2666L1748 2660ZM1754 2651L1758 2650L1762 2648L1764 2654L1760 2655L1761 2660L1757 2662L1756 2657L1754 2651ZM1768 2647L1771 2655L1768 2656L1767 2652L1764 2653L1762 2648L1765 2647L1768 2647L1770 2651ZM1776 2666L1772 2667L1767 2667L1767 2662L1771 2661L1771 2656L1775 2655L1776 2666L1776 2661ZM1764 2676L1768 2676L1760 2677L1759 2671L1764 2671L1764 2665L1768 2665L1768 2676L1768 2671ZM1772 2676L1767 2676L1766 2665L1771 2665ZM1771 2683L1769 2685L1774 2680L1778 2683L1775 2686L1779 2691L1776 2693L1769 2685L1772 2689ZM1768 2686L1770 2684L1773 2681L1778 2686L1775 2689L1778 2692L1776 2694L1768 2686L1773 2691ZM1780 2700L1777 2700L1772 2699L1774 2692L1778 2693L1779 2689L1781 2689L1781 2694L1780 2700ZM1789 2594L1786 2594L1787 2583L1790 2583ZM1806 2604L1806 2608L1798 2608L1798 2604ZM1667 2587L1674 2582L1680 2590L1675 2595ZM1682 2602L1677 2606L1672 2596L1677 2592ZM1678 2609L1685 2604L1690 2614L1683 2619ZM1695 2612L1697 2609L1692 2617L1687 2614L1690 2609L1686 2606L1687 2603L1697 2609L1692 2606ZM1686 2624L1689 2624L1689 2635L1687 2635ZM1698 2617L1700 2615L1703 2612L1707 2615L1703 2619L1708 2623L1706 2625L1702 2621L1698 2617L1698 2617L1702 2621ZM1685 2641L1678 2632L1682 2630L1685 2635L1688 2633L1691 2637L1688 2639L1685 2641L1682 2637ZM1703 2638L1711 2637L1712 2641L1704 2642ZM1690 2645L1695 2641L1699 2647L1702 2650L1699 2652L1696 2649L1694 2651L1690 2645ZM1712 2638L1716 2637L1716 2642L1713 2642ZM1702 2660L1699 2662L1694 2652L1698 2650ZM1719 2637L1716 2637L1724 2636L1725 2642L1720 2643L1721 2648L1718 2648L1716 2637L1717 2643ZM1712 2665L1710 2666L1705 2656L1707 2655L1710 2659L1713 2658L1716 2663L1710 2666L1710 2666L1707 2661ZM1715 2663L1710 2666L1705 2656L1710 2653ZM1716 2663L1709 2666L1707 2661L1711 2659L1708 2654L1711 2653L1713 2658L1716 2663L1713 2664ZM1709 2673L1712 2672L1717 2682L1714 2683ZM1712 2672L1714 2671L1715 2670L1720 2668L1722 2672L1719 2673L1722 2679L1719 2681L1716 2675L1714 2676L1712 2672ZM1714 2682L1717 2680L1719 2684L1716 2686ZM1729 2686L1723 2690L1719 2685L1722 2684L1719 2680L1721 2678L1724 2682L1725 2681L1729 2686ZM1737 2680L1735 2682L1733 2683L1731 2684L1727 2680L1729 2678L1726 2674L1728 2673L1731 2677L1733 2675L1737 2680ZM1726 2692L1728 2691L1735 2700L1733 2701ZM1724 2694L1726 2692L1728 2691L1731 2689L1734 2693L1732 2695L1735 2700L1732 2701L1729 2697L1727 2698L1724 2694ZM1742 2708L1740 2713L1730 2709L1732 2704ZM1740 2713L1737 2719L1727 2715L1730 2709ZM1737 2719L1733 2727L1723 2723L1727 2715ZM1749 2722L1742 2726L1737 2716L1744 2713ZM1481 2598L1479 2602L1478 2602L1476 2605L1472 2602L1473 2600L1468 2597L1470 2595L1474 2598L1477 2595L1481 2598ZM1491 2588L1486 2592L1483 2588L1484 2587L1480 2582L1482 2580L1487 2585L1488 2584L1491 2588ZM1498 2586L1499 2585L1501 2583L1502 2582L1505 2585L1504 2586L1509 2591L1506 2593L1502 2588L1501 2589L1498 2586ZM1482 2603L1484 2600L1493 2607L1490 2610ZM1488 2595L1495 2589L1502 2597L1496 2603ZM1492 2591L1499 2585L1506 2593L1500 2599ZM1516 2595L1511 2601L1502 2594L1507 2588ZM1513 2599L1508 2605L1499 2597L1504 2592ZM1515 2597L1509 2603L1501 2596L1506 2589ZM1511 2600L1506 2606L1498 2599L1503 2593ZM1510 2602L1505 2608L1496 2601L1501 2595ZM1507 2605L1504 2609L1497 2603L1500 2599ZM1503 2605L1503 2610L1494 2610L1494 2606ZM1509 2613L1514 2608L1522 2615L1517 2621ZM1509 2613L1514 2608L1522 2615L1517 2620ZM1507 2615L1508 2624L1497 2625L1496 2616ZM1507 2623L1508 2632L1497 2633L1496 2624ZM1510 2624L1510 2616L1520 2615L1521 2623ZM1539 2609L1534 2615L1525 2608L1530 2602ZM1511 2628L1510 2620L1521 2619L1522 2627ZM1542 2632L1540 2636L1538 2637L1530 2634L1530 2632L1531 2628L1533 2627L1541 2631ZM1549 2622L1547 2625L1538 2618L1540 2615ZM1539 2639L1537 2643L1526 2641L1529 2633ZM1550 2627L1554 2621L1563 2627L1558 2634ZM1536 2646L1533 2652L1524 2647L1526 2641ZM1536 2655L1538 2648L1548 2653L1546 2660ZM1536 2653L1539 2646L1549 2652L1546 2658ZM1533 2660L1536 2654L1546 2660L1543 2666ZM1551 2650L1552 2647L1554 2642L1560 2645L1557 2649L1562 2651L1561 2655L1551 2650L1556 2652ZM1544 2661L1545 2659L1547 2655L1551 2657L1549 2660L1554 2662L1552 2665L1548 2663L1544 2661ZM1556 2673L1558 2664L1564 2665L1564 2670L1568 2671L1567 2674L1563 2674L1556 2673L1557 2669ZM1551 2684L1551 2691L1546 2690L1547 2684ZM1556 2685L1556 2681L1567 2682L1566 2687ZM1557 2673L1568 2674L1568 2677L1563 2676L1562 2682L1556 2681L1557 2676L1557 2673L1563 2674ZM1571 2692L1569 2694L1568 2697L1563 2694L1565 2691L1560 2688L1562 2685L1566 2688L1571 2692ZM1567 2595L1565 2599L1555 2595L1557 2590ZM1564 2603L1562 2605L1561 2608L1559 2610L1555 2606L1557 2604L1552 2601L1554 2598L1559 2602L1560 2600L1564 2603ZM1565 2599L1564 2602L1564 2604L1563 2605L1559 2603L1559 2602L1553 2600L1554 2598L1560 2600L1561 2597L1565 2599ZM1560 2609L1557 2613L1548 2606L1551 2602ZM1571 2594L1573 2589L1583 2593L1581 2598ZM1593 2603L1589 2609L1580 2603L1584 2597ZM1589 2609L1585 2614L1576 2608L1580 2603ZM1586 2612L1591 2606L1600 2612L1595 2619ZM1585 2617L1580 2622L1572 2614L1577 2609ZM1587 2623L1589 2620L1598 2626L1596 2629ZM1586 2624L1592 2617L1600 2625L1594 2631ZM1592 2618L1594 2616L1602 2623L1600 2626ZM1581 2630L1585 2625L1593 2633L1588 2638ZM1583 2627L1589 2621L1597 2629L1591 2634ZM1607 2638L1604 2644L1594 2639L1598 2633ZM1605 2641L1601 2647L1592 2641L1596 2635ZM1604 2642L1602 2646L1592 2640L1595 2636ZM1603 2644L1599 2649L1590 2643L1594 2638ZM1602 2645L1600 2649L1591 2643L1593 2639ZM1603 2655L1606 2651L1608 2651L1616 2656L1611 2663L1603 2657ZM1587 2668L1585 2672L1583 2672L1575 2666L1578 2661L1586 2667ZM1609 2646L1612 2641L1614 2640L1622 2645L1618 2653L1610 2648ZM1600 2659L1603 2654L1605 2654L1613 2660L1609 2666L1601 2661ZM1613 2676L1613 2682L1602 2682L1602 2676ZM1617 2677L1620 2672L1629 2678L1626 2683ZM1624 2691L1630 2687L1635 2697L1629 2701ZM1645 2689L1643 2693L1642 2697L1637 2695L1632 2693L1633 2689L1638 2691L1640 2687L1645 2689ZM1632 2706L1630 2711L1620 2707L1622 2702ZM1635 2720L1626 2717L1628 2713L1632 2715L1634 2711L1638 2712L1636 2716L1635 2720L1631 2719ZM1650 2706L1651 2702L1648 2710L1643 2709L1645 2704L1639 2702L1641 2699L1651 2702L1646 2701ZM1644 2720L1642 2726L1638 2724L1640 2719ZM1646 2720L1648 2715L1658 2719L1656 2724ZM1654 2730L1648 2727L1648 2727L1651 2720L1657 2723L1655 2727L1660 2728L1658 2731L1654 2730L1648 2727L1649 2724ZM1413 2589L1418 2584L1426 2592L1421 2597ZM1449 2593L1444 2598L1437 2590L1442 2585ZM1447 2596L1442 2599L1435 2591L1440 2587ZM1445 2597L1440 2602L1432 2593L1438 2588ZM1441 2600L1435 2605L1428 2597L1434 2592ZM1438 2603L1434 2606L1427 2598L1431 2594ZM1435 2609L1440 2604L1447 2612L1442 2617ZM1465 2600L1457 2604L1452 2594L1460 2591ZM1444 2610L1442 2618L1431 2615L1433 2607ZM1445 2614L1446 2611L1457 2614L1456 2617ZM1466 2612L1463 2614L1458 2604L1461 2602ZM1450 2620L1444 2623L1439 2613L1445 2610ZM1447 2626L1455 2622L1460 2632L1452 2636ZM1467 2616L1471 2614L1474 2615L1478 2622L1470 2626L1466 2619ZM1459 2635L1456 2637L1451 2629L1455 2627ZM1459 2635L1456 2637L1454 2636L1450 2630L1456 2626L1459 2632ZM1459 2642L1463 2639L1470 2648L1464 2652ZM1458 2642L1463 2640L1468 2647L1462 2650ZM1459 2642L1463 2640L1468 2649L1465 2651ZM1458 2643L1465 2638L1470 2648L1463 2652ZM1914 2725L1904 2726L1903 2721L1907 2721L1907 2714L1910 2714L1911 2720L1913 2720L1914 2725ZM1916 2691L1917 2701L1906 2702L1905 2692ZM1908 2702L1899 2700L1903 2689L1911 2692ZM1895 2738L1886 2739L1885 2734L1894 2733ZM1867 2739L1874 2742L1869 2752L1863 2749ZM1874 2732L1868 2738L1860 2730L1866 2724ZM1869 2714L1864 2719L1856 2712L1862 2706ZM1868 2702L1862 2708L1855 2700L1861 2695ZM1884 2743L1877 2744L1876 2733L1883 2732ZM1863 2725L1859 2729L1851 2721L1856 2717ZM1860 2704L1855 2709L1849 2702L1853 2698ZM1873 2744L1880 2743L1881 2754L1875 2755ZM1856 2757L1862 2757L1863 2764L1857 2765ZM1851 2736L1843 2737L1842 2726L1850 2725ZM1852 2719L1844 2720L1843 2709L1851 2708ZM1848 2746L1857 2745L1858 2756L1850 2757ZM1851 2758L1856 2758L1858 2759L1859 2768L1850 2769L1849 2760ZM1849 2770L1855 2769L1856 2771L1857 2780L1849 2781L1848 2772ZM1845 2730L1839 2731L1837 2729L1836 2720L1845 2719L1846 2728ZM1845 2719L1836 2720L1836 2715L1844 2714ZM1839 2759L1847 2758L1848 2769L1840 2770ZM1841 2770L1849 2769L1850 2780L1842 2781ZM1845 2743L1839 2744L1839 2733L1845 2732ZM1837 2732L1830 2733L1829 2727L1836 2727ZM1832 2744L1824 2745L1824 2739L1828 2739L1827 2734L1831 2733L1832 2739L1832 2744L1828 2745ZM1830 2733L1822 2734L1821 2728L1829 2727ZM1816 2751L1824 2750L1824 2755L1820 2756L1821 2761L1817 2761L1816 2756L1816 2751L1820 2750ZM1818 2756L1822 2757L1817 2767L1814 2766L1816 2761L1812 2759L1814 2754L1822 2757L1820 2762ZM1817 2755L1820 2756L1815 2767L1813 2766L1815 2760L1812 2759L1814 2754L1820 2756L1818 2761ZM1822 2752L1816 2750L1817 2746L1823 2748ZM1886 2656L1881 2653L1886 2643L1892 2646ZM1893 2660L1886 2656L1892 2646L1899 2650ZM1867 2653L1873 2655L1869 2663L1864 2661ZM1864 2652L1868 2653L1865 2664L1860 2662ZM1861 2651L1868 2653L1864 2664L1857 2661ZM1904 2673L1911 2676L1905 2686L1898 2682ZM1886 2687L1878 2685L1881 2674L1889 2677ZM1871 2670L1879 2673L1875 2683L1867 2681ZM1886 2696L1878 2693L1882 2683L1890 2685ZM1891 2697L1886 2696L1890 2685L1895 2687ZM1868 2678L1873 2679L1869 2690L1864 2688ZM1859 2674L1864 2676L1862 2683L1857 2681ZM1891 2701L1895 2702L1894 2707L1889 2706ZM1888 2700L1893 2701L1890 2712L1885 2710ZM1888 2700L1893 2701L1890 2712L1885 2710ZM1863 2685L1868 2687L1864 2697L1859 2695ZM1874 2707L1870 2710L1866 2706L1870 2703ZM1877 2727L1874 2731L1866 2723L1870 2720ZM1885 2782L1893 2786L1890 2791L1883 2787ZM1887 2783L1891 2785L1885 2794L1882 2792ZM1885 2782L1894 2787L1888 2796L1880 2791ZM1905 2802L1914 2802L1914 2813L1905 2813ZM1833 2789L1841 2790L1840 2801L1833 2800ZM1840 2788L1848 2788L1848 2799L1839 2799ZM1874 2785L1870 2785L1871 2774L1875 2774ZM1846 2789L1854 2789L1853 2800L1846 2800ZM1852 2789L1860 2789L1860 2800L1852 2800ZM1884 2803L1886 2803L1886 2814L1883 2814ZM1892 2806L1900 2806L1899 2817L1892 2817ZM1890 2827L1886 2829L1882 2821L1886 2819ZM1875 2815L1868 2819L1863 2809L1869 2806ZM1865 2812L1856 2816L1851 2807L1860 2802ZM1889 2828L1885 2830L1880 2820L1884 2818ZM1887 2829L1883 2831L1878 2821L1882 2819ZM1885 2835L1891 2832L1896 2842L1890 2845ZM1816 2755L1818 2756L1814 2766L1811 2765ZM1808 2778L1805 2777L1804 2775L1807 2768L1810 2767L1813 2768L1813 2771L1810 2777ZM1808 2779L1805 2777L1804 2774L1807 2768L1809 2767L1813 2769L1814 2771L1811 2778ZM1809 2779L1804 2777L1808 2766L1814 2769ZM1812 2780L1807 2778L1810 2768L1817 2770ZM1788 2597L1794 2597L1793 2608L1787 2608ZM1775 2618L1782 2619L1782 2630L1775 2629ZM1779 2629L1783 2629L1782 2638L1779 2638ZM1786 2594L1778 2594L1779 2583L1787 2583ZM1746 2633L1752 2633L1752 2638L1747 2639ZM1746 2667L1739 2667L1738 2662L1746 2661ZM1744 2678L1741 2678L1740 2667L1743 2667ZM1741 2681L1747 2681L1747 2692L1741 2692ZM1741 2710L1743 2705L1754 2709L1751 2714ZM1719 2600L1715 2602L1711 2591L1715 2590ZM1723 2589L1728 2591L1731 2592L1730 2598L1728 2603L1724 2601L1726 2597L1721 2595L1723 2589ZM1711 2606L1714 2605L1719 2615L1715 2616ZM1717 2621L1724 2619L1726 2624L1720 2626ZM1702 2608L1704 2607L1699 2612L1695 2608L1698 2605L1694 2601L1696 2599L1704 2607L1700 2603ZM1647 2595L1641 2599L1638 2594L1644 2590ZM1688 2624L1694 2624L1694 2631L1688 2631ZM1682 2651L1685 2649L1691 2658L1688 2660L1685 2655L1682 2657L1679 2653L1685 2649L1688 2653ZM1700 2721L1697 2724L1703 2717L1708 2721L1705 2725L1708 2728L1705 2732L1697 2724L1702 2729ZM1624 2619L1621 2621L1615 2611L1618 2610ZM1598 2606L1600 2603L1609 2609L1607 2612L1602 2608L1599 2613L1595 2610L1600 2603L1604 2606ZM1626 2653L1627 2651L1629 2647L1635 2650L1633 2654L1637 2656L1636 2658L1632 2656L1626 2653ZM1611 2640L1613 2638L1622 2643L1621 2645ZM1611 2631L1609 2634L1608 2637L1603 2634L1604 2631L1600 2629L1601 2627L1605 2629L1606 2628L1611 2631ZM1593 2613L1595 2609L1604 2616L1602 2619ZM1612 2638L1616 2632L1620 2634L1619 2635L1623 2638L1621 2641L1617 2638L1616 2640L1612 2638ZM1628 2682L1626 2683L1623 2685L1622 2686L1619 2682L1620 2681L1617 2676L1619 2674L1623 2679L1625 2678L1628 2682ZM1604 2587L1601 2592L1595 2588L1598 2583ZM1670 2677L1668 2679L1665 2676L1667 2674ZM1664 2656L1659 2659L1653 2650L1657 2647ZM1663 2695L1657 2696L1655 2686L1661 2684ZM1650 2696L1651 2703L1640 2703L1639 2695ZM1593 2686L1595 2684L1596 2681L1597 2680L1602 2684L1602 2685L1606 2687L1604 2690L1600 2687L1598 2690L1593 2686ZM1599 2695L1601 2692L1602 2691L1603 2689L1608 2692L1607 2694L1611 2697L1610 2699L1606 2696L1604 2698L1599 2695ZM1583 2686L1587 2679L1592 2682L1591 2684L1595 2687L1594 2689L1589 2686L1588 2689L1583 2686ZM1583 2685L1586 2681L1595 2687L1592 2691ZM1561 2613L1563 2610L1566 2613L1564 2615ZM1547 2602L1541 2609L1533 2602L1538 2595ZM1555 2620L1556 2618L1565 2625L1563 2627ZM1476 2605L1473 2609L1467 2604L1470 2601ZM1407 2600L1410 2597L1412 2597L1418 2603L1418 2604L1414 2608L1413 2608L1407 2602Z" fill="#2e2820" stroke="rgba(220,190,140,.22)" stroke-width="0.409091"/><path d="M1750 2753L1746 2758L1740 2754L1743 2748ZM1783 2741L1785 2737L1788 2736L1796 2739L1793 2747L1784 2743ZM1812 2708L1806 2706L1808 2701L1810 2696L1813 2697L1811 2702L1814 2703L1812 2708ZM1810 2680L1812 2676L1813 2674L1814 2672L1818 2674L1817 2676L1823 2679L1821 2682L1816 2680L1815 2682L1810 2680ZM1795 2634L1795 2638L1793 2640L1784 2640L1784 2633L1793 2633ZM1823 2610L1829 2614L1822 2623L1816 2619ZM1891 2611L1886 2607L1893 2599L1898 2603ZM1891 2781L1889 2780L1893 2772L1896 2774ZM1646 2640L1649 2638L1655 2648L1652 2649L1650 2645L1647 2647L1644 2642L1649 2638L1652 2644ZM1682 2686L1677 2691L1670 2682L1675 2677ZM1723 2736L1721 2738L1718 2738L1716 2734L1716 2731L1719 2730L1721 2730L1724 2734ZM1750 2615L1745 2616L1743 2614L1742 2605L1750 2604L1751 2613ZM1768 2686L1773 2681L1776 2684L1781 2689L1778 2691L1774 2687L1771 2690L1768 2686ZM1701 2633L1697 2634L1694 2635L1692 2630L1696 2630L1694 2624L1698 2623L1701 2633L1700 2629ZM1731 2706L1726 2711L1718 2703L1723 2698ZM1479 2606L1484 2600L1493 2607L1488 2613ZM1511 2635L1511 2632L1512 2630L1521 2630L1522 2631L1522 2634L1521 2636L1513 2636ZM1552 2677L1552 2680L1541 2679L1542 2675L1548 2676L1548 2670L1553 2671L1552 2680L1547 2680ZM1556 2618L1561 2613L1569 2619L1565 2625ZM1612 2656L1614 2653L1624 2659L1621 2662ZM1624 2691L1629 2687L1635 2697L1629 2701ZM1459 2642L1463 2640L1466 2645L1462 2647ZM1832 2762L1838 2761L1838 2772L1832 2773ZM1864 2652L1872 2655L1868 2665L1860 2662ZM1881 2724L1878 2726L1871 2719L1873 2716ZM1882 2830L1880 2834L1870 2828L1873 2824ZM1755 2646L1752 2647L1749 2639L1752 2637ZM1649 2594L1653 2590L1660 2599L1656 2603ZM1638 2601L1635 2603L1629 2594L1632 2592Z" fill="#442c33" stroke="rgba(220,190,140,.22)" stroke-width="0.409091"/><path d="M1772 2738L1768 2746L1758 2742L1762 2734ZM1575 2686L1573 2689L1564 2683L1566 2680Z" fill="#2f382c" stroke="rgba(220,190,140,.22)" stroke-width="0.409091"/><path d="M1762 2761L1758 2766L1751 2762L1755 2756Z" fill="#2f3f47" stroke="rgba(220,190,140,.22)" stroke-width="0.409091"/><path d="M1757 2768L1753 2773L1746 2769L1750 2763ZM1605 2641L1601 2647L1592 2641L1596 2635Z" fill="#2f382c" stroke="rgba(220,190,140,.22)" stroke-width="0.409091"/><path d="M1882 2745L1886 2747L1882 2757L1878 2755ZM1719 2739L1715 2742L1711 2735L1715 2732ZM1595 2615L1597 2612L1605 2620L1602 2623Z" fill="#3a3a2e" stroke="rgba(220,190,140,.22)" stroke-width="0.409091"/><path d="M1777 2756L1780 2749L1790 2754L1787 2761ZM1769 2747L1766 2754L1756 2749L1759 2742ZM1779 2750L1783 2742L1793 2746L1789 2754ZM1782 2741L1789 2744L1784 2754L1777 2751ZM1790 2741L1783 2738L1787 2728L1794 2731ZM1778 2725L1775 2732L1765 2728L1768 2721ZM1796 2734L1797 2730L1799 2729L1808 2733L1805 2739L1796 2736ZM1800 2710L1807 2713L1803 2723L1795 2720ZM1815 2709L1821 2712L1816 2722L1810 2719ZM1802 2711L1808 2714L1803 2723L1797 2721ZM1810 2708L1803 2705L1808 2695L1815 2698ZM1818 2692L1820 2688L1830 2693L1828 2696L1823 2694L1822 2697L1817 2695L1820 2688L1824 2691ZM1828 2695L1829 2692L1831 2688L1836 2691L1834 2694L1840 2697L1838 2700L1833 2697L1828 2695ZM1840 2695L1841 2691L1842 2688L1847 2690L1852 2693L1851 2696L1846 2693L1844 2697L1840 2695ZM1816 2688L1820 2680L1824 2682L1822 2687L1828 2689L1827 2692L1821 2690L1816 2688L1818 2685ZM1828 2688L1830 2683L1831 2680L1837 2683L1841 2685L1840 2688L1836 2686L1834 2691L1828 2688ZM1806 2684L1804 2687L1802 2691L1797 2689L1799 2684L1794 2682L1796 2680L1800 2681L1806 2684ZM1810 2676L1815 2678L1818 2678L1817 2684L1816 2689L1813 2688L1814 2684L1808 2682L1810 2676ZM1822 2676L1813 2674L1814 2669L1820 2670L1821 2665L1824 2665L1823 2670L1822 2676L1818 2676ZM1810 2676L1818 2678L1817 2683L1813 2682L1812 2688L1809 2688L1811 2682L1808 2681L1810 2676ZM1828 2671L1829 2668L1831 2664L1831 2663L1836 2665L1835 2666L1841 2668L1839 2672L1834 2670L1832 2672L1828 2671ZM1806 2663L1803 2671L1793 2667L1796 2659ZM1818 2664L1818 2655L1829 2655L1829 2664ZM1806 2654L1806 2663L1795 2663L1795 2654ZM1818 2658L1818 2651L1829 2651L1829 2658ZM1828 2652L1828 2645L1839 2645L1839 2652ZM1806 2651L1806 2659L1796 2659L1796 2651ZM1795 2648L1795 2655L1784 2655L1784 2648ZM1818 2648L1818 2640L1828 2640L1828 2648ZM1795 2640L1795 2648L1784 2648L1784 2640ZM1818 2637L1818 2630L1829 2630L1829 2637ZM1831 2635L1831 2628L1842 2628L1842 2635ZM1806 2637L1806 2644L1796 2644L1796 2637ZM1795 2628L1795 2633L1784 2633L1784 2628ZM1807 2617L1807 2621L1796 2623L1796 2615ZM1849 2710L1841 2706L1845 2698L1852 2701Z" fill="#3a3a2e" stroke="rgba(220,190,140,.22)" stroke-width="0.409091"/><path d="M1789 2709L1790 2706L1792 2702L1797 2705L1802 2707L1800 2710L1796 2708L1794 2712L1789 2709ZM1806 2631L1806 2636L1796 2636L1796 2631ZM1859 2594L1865 2597L1860 2607L1854 2603ZM1745 2633L1752 2633L1752 2637L1748 2638L1748 2644L1746 2644L1745 2638L1745 2633L1747 2633ZM1685 2601L1677 2605L1674 2600L1678 2597L1676 2593L1679 2591L1681 2595L1685 2601L1682 2602ZM1541 2671L1541 2674L1530 2673L1530 2669L1536 2670L1537 2666L1542 2666L1541 2674L1536 2673ZM1444 2598L1437 2604L1430 2595L1436 2590ZM1683 2690L1679 2695L1672 2689L1676 2685Z" fill="#3d362c" stroke="rgba(220,190,140,.22)" stroke-width="0.409091"/><path d="M1901 2616L1894 2614L1898 2603L1905 2606ZM1894 2783L1891 2782L1889 2780L1888 2780L1890 2776L1892 2776L1895 2771L1897 2772L1894 2778L1896 2779L1894 2783ZM1760 2611L1756 2611L1754 2610L1753 2601L1760 2600L1761 2609ZM1588 2677L1592 2671L1601 2678L1598 2682ZM1862 2715L1857 2720L1849 2712L1854 2707ZM1806 2782L1810 2784L1807 2792L1803 2790ZM1662 2591L1668 2586L1675 2595L1669 2600ZM1717 2698L1721 2692L1729 2700L1725 2706ZM1543 2594L1537 2600L1529 2593L1534 2587Z" fill="#442c33" stroke="rgba(220,190,140,.22)" stroke-width="0.409091"/><path d="M1891 2648L1891 2644L1902 2643L1902 2648ZM1520 2626L1520 2623L1527 2622L1527 2625Z" fill="#2f3f47" stroke="rgba(220,190,140,.22)" stroke-width="0.409091"/><path d="M1829 2650L1829 2642L1840 2642L1840 2650ZM1552 2680L1551 2684L1541 2683L1541 2679Z" fill="#3d362c" stroke="rgba(220,190,140,.22)" stroke-width="0.409091"/><path d="M1767 2773L1771 2767L1777 2772L1773 2777ZM1774 2762L1776 2757L1784 2760L1781 2765ZM1765 2755L1763 2761L1755 2758L1758 2752ZM1744 2742L1750 2740L1753 2747L1748 2750ZM1741 2730L1746 2727L1750 2734L1745 2737ZM1696 2716L1694 2719L1688 2713L1690 2710ZM1693 2730L1697 2725L1703 2730L1699 2735ZM1704 2738L1700 2741L1695 2734L1699 2732ZM1714 2744L1717 2749L1712 2751L1710 2746ZM1719 2746L1716 2740L1723 2737L1726 2742ZM1724 2756L1721 2751L1729 2747L1731 2753Z" fill="#2e2820" stroke="rgba(220,190,140,.22)" stroke-width="0.409091"/><path d="M1806 2644L1806 2652L1796 2652L1796 2644Z" fill="#3a3a2e" stroke="rgba(220,190,140,.22)" stroke-width="0.409091"/><path d="M1703 2717L1707 2712L1714 2717L1709 2722Z" fill="#3d362c" stroke="rgba(220,190,140,.22)" stroke-width="0.409091"/><path d="M1707 2729L1711 2724L1717 2729L1713 2734Z" fill="#2b2822" stroke="rgba(220,190,140,.22)" stroke-width="0.409091"/><path d="M1080.0 2016.0L1152.0 2256.0L1416.0 2640.0L1656.0 2760.0M1656.0 2760.0L1848.0 2808.0M1848.0 2808.0L2040.0 2904.0L2784.0 3024.0L3048.0 3012.0" fill="none" stroke="#6a6459" stroke-width="6" stroke-linejoin="round" stroke-linecap="round"/><path d="M1747.7 2784.3L1742.8 2789.2L1735.9 2789.2L1731.1 2784.3L1731.1 2777.4L1735.9 2772.5L1742.8 2772.5L1747.7 2777.4ZM1772.9 2790.6L1768.1 2795.5L1761.2 2795.5L1756.3 2790.6L1756.3 2783.7L1761.2 2778.8L1768.1 2778.8L1772.9 2783.7Z" fill="#847d70" stroke="#6a6459" stroke-width="0.490909"/><g><circle cx="1752" cy="2784" r="5.72727" fill="none" stroke="#c8a25e" stroke-width="1.30909"/><text x="1761" y="2777.45" fill="#e8dcc8" font-family="Georgia,serif" font-size="10.6364" paint-order="stroke" stroke="#1b1712" stroke-width="2.86364">La Vieille Porte</text></g><text x="1733.2" y="2747.7" fill="#e8dcc8" opacity=".5" font-family="Georgia,serif" font-size="13.0909" text-anchor="middle">Le bourg de la Gadoue</text><g font-family="Georgia,serif" fill="#e8dcc8"><text x="919.8" y="2745" font-size="13.9091" paint-order="stroke" stroke="#1b1712" stroke-width="3.27273">quartier — carré 1, 3</text><text x="919.8" y="2773.8" font-size="9.81818" opacity=".7" paint-order="stroke" stroke="#1b1712" stroke-width="2.45455">0.82 m/px — coin 900, 2700 — 900 × 900 m</text><path d="M919.8 3559.5h100" stroke="#e8dcc8" stroke-width="1.8"/><text x="969.8" y="3554.59" font-size="9.81818" text-anchor="middle" paint-order="stroke" stroke="#1b1712" stroke-width="2.45455">100 m</text></g></svg>